<?xml version="1.0" standalone="no"?><!DOCTYPE svg PUBLIC "-//W3C//DTD SVG 1.1//EN" "http://www.w3.org/Graphics/SVG/1.1/DTD/svg11.dtd"><svg t="1552665783987" class="icon" style="" viewBox="0 0 1024 1024" version="1.1" xmlns="http://www.w3.org/2000/svg" p-id="2169" xmlns:xlink="http://www.w3.org/1999/xlink" width="200" height="200"><defs><style type="text/css"></style></defs><path d="M204.8 384h614.4c56.32 0 102.4-46.08 102.4-102.4s-46.08-102.4-102.4-102.4H204.8c-56.32 0-102.4 46.08-102.4 102.4s46.08 102.4 102.4 102.4z m0-153.6h614.4c28.16 0 51.2 23.04 51.2 51.2s-23.04 51.2-51.2 51.2H204.8c-28.16 0-51.2-23.04-51.2-51.2s23.04-51.2 51.2-51.2z m614.4 204.8H204.8c-56.32 0-102.4 46.08-102.4 102.4s46.08 102.4 102.4 102.4h614.4c56.32 0 102.4-46.08 102.4-102.4s-46.08-102.4-102.4-102.4z m0 153.6H204.8c-28.16 0-51.2-23.04-51.2-51.2s23.04-51.2 51.2-51.2h614.4c28.16 0 51.2 23.04 51.2 51.2s-23.04 51.2-51.2 51.2z m0 102.4H204.8c-56.32 0-102.4 46.08-102.4 102.4s46.08 102.4 102.4 102.4h614.4c56.32 0 102.4-46.08 102.4-102.4s-46.08-102.4-102.4-102.4z m0 153.6H204.8c-28.16 0-51.2-23.04-51.2-51.2s23.04-51.2 51.2-51.2h614.4c28.16 0 51.2 23.04 51.2 51.2s-23.04 51.2-51.2 51.2z" p-id="2170"></path></svg>