<?xml version="1.0" standalone="no"?><!DOCTYPE svg PUBLIC "-//W3C//DTD SVG 1.1//EN" "http://www.w3.org/Graphics/SVG/1.1/DTD/svg11.dtd"><svg t="1552665854247" class="icon" style="" viewBox="0 0 1376 1024" version="1.1" xmlns="http://www.w3.org/2000/svg" p-id="3239" xmlns:xlink="http://www.w3.org/1999/xlink" width="268.75" height="200"><defs><style type="text/css"></style></defs><path d="M596.800316 1023.986434q-3.66285 0-7.447794-0.217058c-24.581792-1.356611-50.303136-9.048595-80.04005-17.934397-110.238211-32.789288-153.134251-29.397761-187.565038-26.630275-51.008574 4.069833-91.842566 15.926613-127.88772 26.345386-56.177262 16.279332-104.689672 30.293124-147.029502-6.783055C18.802629 974.239508 3.065941 934.6129 0.054264 880.972501V186.04851c0-91.313487 68.49529-165.750733 153.161384-167.093778a1093.645533 1093.645533 0 0 1 405.463899 0 151.831904 151.831904 0 0 1 108.094765 49.774058c28.990777 31.554772 44.958089 73.256995 44.958089 117.31972V879.683721c-3.147338 53.002792-18.870459 92.819325-46.748815 118.36431-19.00612 17.418885-41.403768 25.938403-68.18327 25.938403z m-243.376015-93.60616c69.187162 0 124.021379 16.360729 169.400017 29.845442 57.561005 17.161129 86.294026 24.418998 110.034719 2.713222 18.354947-16.821977 28.922947-45.58213 31.378413-85.466493V186.04851c0-32.165247-11.517627-62.404107-32.43657-85.195171a105.476506 105.476506 0 0 0-75.631063-34.430788h-2.19771l-2.157012-0.406983a1046.245545 1046.245545 0 0 0-391.884223 0l-2.19771 0.420549h-2.238408c-28.326038 0-55.159804 12.209499-75.563233 34.444354-20.918942 22.763933-32.436569 53.016358-32.436569 85.195171v692.943339c2.333371 40.060723 12.630049 68.346063 30.591578 84.109883 10.337376 9.048595 21.488718 12.52152 37.320369 11.626156 17.635943-1.003892 39.72157-7.379964 65.239423-14.759928 36.302911-10.513735 81.491623-23.591465 137.275469-28.068281 12.236631-1.031024 24.066279-1.478706 35.516076-1.478706z" p-id="3240"></path><path d="M1261.064898 1023.986434c-2.4419 0-4.924498-0.067831-7.447794-0.217058-24.581792-1.356611-50.303136-9.048595-80.04005-17.934397-110.251777-32.789288-153.174949-29.397761-187.605737-26.630275-51.008574 4.069833-91.842566 15.926613-127.88772 26.345386-56.177262 16.279332-104.689672 30.293124-147.029501-6.783055-28.027584-24.527527-43.764271-64.154135-46.775948-117.794534l47.413555-2.713222c2.26554 40.521971 12.575784 69.010802 30.605144 84.828887 10.337376 9.048595 21.502285 12.52152 37.320369 11.626156 17.635943-1.003892 39.72157-7.379964 65.239424-14.759928 36.302911-10.513735 81.491623-23.591465 137.275468-28.068282 86.199064-6.932282 152.02183 12.697879 204.916094 28.488832 57.561005 17.161129 86.294026 24.418998 110.034719 2.713222 18.354947-16.821977 28.922947-45.58213 31.378412-85.466494V186.04851c0-32.165247-11.517627-62.404107-32.436569-85.195171a105.476506 105.476506 0 0 0-75.64463-34.430788h-2.19771l-2.157011-0.406983a1046.245545 1046.245545 0 0 0-391.884223 0l-2.19771 0.420549h-2.238408c-28.326038 0-55.159804 12.209499-75.563234 34.444354-20.918942 22.763933-32.436569 53.016358-32.436569 85.195171h-47.481385c0-91.313487 68.49529-165.750733 153.161383-167.093778a1093.645533 1093.645533 0 0 1 405.463899 0 151.831904 151.831904 0 0 1 108.216861 49.746926c28.990777 31.554772 44.958089 73.256995 44.958088 117.31972V879.683721c-3.147338 53.002792-18.870459 92.819325-46.748815 118.36431-19.087517 17.418885-41.444466 25.938403-68.210402 25.938403zM121.362421 229.43293h334.974391v47.481386H121.362421zM121.362421 384.507135h334.974391v47.481386H121.362421z" p-id="3241"></path><path d="M942.342707 431.988521a23.740693 23.740693 0 0 1-23.740693-23.740693V14.681407h47.481386v342.788471l60.626946-50.655856a23.740693 23.740693 0 0 1 30.442351 0l55.376862 46.260436V23.689304h47.481385V403.87954a23.740693 23.740693 0 0 1-38.961868 18.219286l-79.131121-66.12122-84.367638 70.543772a23.740693 23.740693 0 0 1-15.20761 5.467143z" p-id="3242"></path></svg>