<?xml version="1.0" standalone="no"?><!DOCTYPE svg PUBLIC "-//W3C//DTD SVG 1.1//EN" "http://www.w3.org/Graphics/SVG/1.1/DTD/svg11.dtd"><svg t="1552665822819" class="icon" style="" viewBox="0 0 1024 1024" version="1.1" xmlns="http://www.w3.org/2000/svg" p-id="3033" xmlns:xlink="http://www.w3.org/1999/xlink" width="200" height="200"><defs><style type="text/css"></style></defs><path d="M721.338182 350.859636a64.512 64.512 0 0 1 64.512 64.488728 64.512 64.512 0 0 1-129.000727 0 64.488727 64.488727 0 0 1 64.488727-64.488728zM495.592727 350.859636a64.465455 64.465455 0 1 1 0 128.977455 64.465455 64.465455 0 0 1 0-128.977455zM269.847273 350.859636a64.512 64.512 0 1 1 0 129.000728 64.512 64.512 0 0 1 0-129.000728z" fill="" p-id="3034"></path><path d="M427.264 930.769455a32.116364 32.116364 0 0 1-28.299636-16.756364l-109.544728-192.069818a32.186182 32.186182 0 0 1 12.032-43.962182 32.116364 32.116364 0 0 1 43.962182 12.032l81.850182 143.429818 81.850182-143.429818c8.843636-15.499636 28.509091-20.945455 43.985454-12.032 15.476364 8.797091 20.852364 28.485818 12.032 43.962182l-109.568 192.069818a32.302545 32.302545 0 0 1-28.229818 16.756364h-0.069818z" fill="" p-id="3035"></path><path d="M837.934545 737.024H540.439273c-17.826909 0-32.256-14.405818-32.256-32.256s14.429091-32.256 32.256-32.256h297.495272c42.146909 0 76.404364-32.814545 76.404364-73.146182V230.795636c0-40.308364-34.280727-73.076364-76.404364-73.076363H186.042182c-42.123636 0-76.381091 32.768-76.381091 73.076363v368.570182c0 40.308364 34.257455 73.146182 76.381091 73.146182h129.419636c17.826909 0 32.256 14.405818 32.256 32.256s-14.429091 32.256-32.256 32.256H186.042182c-77.684364 0-140.893091-61.719273-140.893091-137.634909V230.795636c0-75.869091 63.208727-137.588364 140.893091-137.588363h651.892363c77.684364 0 140.916364 61.719273 140.916364 137.588363v368.570182c0 75.938909-63.232 137.658182-140.916364 137.658182z" fill="" p-id="3036"></path></svg>