<?xml version="1.0" standalone="no"?><!DOCTYPE svg PUBLIC "-//W3C//DTD SVG 1.1//EN" "http://www.w3.org/Graphics/SVG/1.1/DTD/svg11.dtd"><svg t="1552665897721" class="icon" style="" viewBox="0 0 1024 1024" version="1.1" xmlns="http://www.w3.org/2000/svg" p-id="3666" xmlns:xlink="http://www.w3.org/1999/xlink" width="200" height="200"><defs><style type="text/css"></style></defs><path d="M753.671 236.272H280.995c-21.754 0-39.39 17.635-39.39 39.39v472.673c0 21.756 17.636 39.392 39.39 39.392h472.676c21.753 0 39.39-17.637 39.39-39.392V275.662c0-21.755-17.637-39.39-39.39-39.39zM280.995 748.335v-1.476c0.519 0.503 1.043 0.997 1.573 1.476h-1.573z m472.676 0L600.566 586.83l-75.603 65.663-113.452-105.047-113.445 105.047-17.07 19.498v-396.33H753.67v472.674z m-124.737-237.47c40.652 0 73.638-33.044 73.638-73.751 0-40.74-32.986-73.767-73.638-73.767-40.672 0-73.64 33.026-73.64 73.767 0 40.711 32.968 73.751 73.64 73.751zM218.384 329.419v-39.39h-49.157c-21.755 0-39.39 17.635-39.39 39.39V692.31c0 21.756 17.635 39.392 39.39 39.392h49.157V692.31h-49.157V329.42h49.157zM815.088 692.562v39.39h49.158c21.754 0 39.39-17.636 39.39-39.39V329.669c0-21.754-17.636-39.391-39.39-39.391h-49.158v39.391h49.158v362.893h-49.158z" p-id="3667"></path></svg>